<svg xmlns="http://www.w3.org/2000/svg" width="145" height="44" version="1.1"><g fill="none"><path fill="#243036" fill-rule="evenodd" d="M0 6a6 6 0 0 1 6-6h133a6 6 0 0 1 6 6v32a6 6 0 0 1-6 6H6a6 6 0 0 1-6-6V6z" clip-rule="evenodd"/><path fill="#fff" d="M30.08 8.8a5.16 5.16 0 0 0-3.46 1.82 5.11 5.11 0 0 0-1.25 3.69c1.33.11 2.66-.68 3.49-1.68a5.43 5.43 0 0 0 1.22-3.83zm-.16 6.21c-1.94 0-3.32 1.04-4.23 1.04-.92 0-2.29-1.03-3.87-1.03a5.78 5.78 0 0 0-4.84 2.93c-2.06 3.47-.53 8.61 1.45 11.44.98 1.4 2.15 2.88 3.74 2.88 1.45-.06 1.94-.87 3.7-.87 1.77 0 2.3.87 3.88.87s2.54-1.43 3.52-2.83c1.1-1.58 1.56-3.13 1.59-3.21-.03-.03-3.07-1.17-3.1-4.62-.03-2.88 2.4-4.25 2.5-4.33A5.47 5.47 0 0 0 30.1 15h-.18zm19.93-2.84a.8.8 0 0 0-.33-.69 1.4 1.4 0 0 0-.88-.25c-.32 0-.58.08-.8.25a.79.79 0 0 0-.32.65h-1.1c0-.35.09-.66.28-.93.2-.27.46-.48.8-.63.35-.15.73-.23 1.14-.23.73 0 1.3.16 1.7.48.41.32.62.77.62 1.34 0 .29-.1.56-.27.8s-.42.43-.73.58a1.49 1.49 0 0 1 1.1 1.5c0 .56-.22 1.02-.66 1.36a2.8 2.8 0 0 1-1.76.5c-.45 0-.86-.07-1.22-.24a1.85 1.85 0 0 1-.83-.66 1.7 1.7 0 0 1-.27-.95h1.1c0 .27.12.5.35.7.23.18.52.28.87.28.4 0 .7-.1.95-.28a.87.87 0 0 0 .36-.72c0-.36-.1-.62-.32-.78-.2-.17-.51-.25-.92-.25h-.75v-.88h.71c.79 0 1.18-.32 1.18-.95zm5.3 4.65a1.4 1.4 0 0 1-.12-.44c-.34.35-.76.53-1.25.53-.48 0-.87-.14-1.17-.4a1.3 1.3 0 0 1-.45-1.02c0-.5.18-.9.56-1.16a2.7 2.7 0 0 1 1.62-.41h.65v-.31a.82.82 0 0 0-.2-.6c-.14-.14-.35-.22-.63-.22a.93.93 0 0 0-.6.19.56.56 0 0 0-.23.46h-1.07c0-.26.08-.5.26-.73.17-.23.4-.4.7-.54.3-.13.63-.2 1-.2.56 0 1 .15 1.33.43.33.28.5.67.51 1.18v2.14c0 .43.06.77.18 1.03v.07h-1.09zm-1.17-.77c.2 0 .4-.05.59-.15.19-.1.33-.24.42-.41v-.9h-.57c-.4 0-.7.07-.9.2-.2.14-.3.34-.3.6 0 .2.07.36.2.48a.8.8 0 0 0 .56.18zm6.69-3.12H58.6v3.9h-1.06v-4.76h3.13v.86zm5.09 1.56c0 .74-.17 1.33-.5 1.77a1.6 1.6 0 0 1-1.35.65c-.52 0-.94-.17-1.25-.51v2.25h-1.07v-6.58h.98l.05.48c.31-.38.74-.57 1.28-.57.58 0 1.03.22 1.36.65.33.43.5 1.03.5 1.8v.06zm-1.07-.09c0-.47-.1-.85-.28-1.13a.92.92 0 0 0-.81-.42c-.44 0-.75.18-.94.54v2.11a1 1 0 0 0 .95.56c.34 0 .6-.14.8-.41.19-.28.28-.7.28-1.25zm3.9.9l.97-3.23h1.14l-1.89 5.47c-.29.8-.78 1.2-1.48 1.2-.15 0-.32-.02-.51-.08v-.82l.2.01c.27 0 .47-.05.6-.15.15-.1.25-.26.33-.5l.16-.4-1.67-4.73h1.15l1 3.22zm6.65-1.93c0 .2-.06.4-.2.58-.12.18-.3.32-.53.42.55.2.82.56.82 1.1 0 .44-.18.8-.53 1.05-.36.26-.83.39-1.43.39-.36 0-.7-.06-1-.18-.29-.12-.52-.3-.69-.52a1.3 1.3 0 0 1-.25-.8h1.06c0 .2.09.36.26.49.18.13.4.2.66.2s.46-.07.62-.19a.58.58 0 0 0 .23-.48c0-.23-.07-.4-.2-.5-.14-.1-.34-.15-.63-.15h-.76V14h.79c.48 0 .72-.2.72-.59 0-.2-.07-.34-.21-.45a.9.9 0 0 0-.57-.16.98.98 0 0 0-.59.17.51.51 0 0 0-.24.44H71.5c0-.42.18-.77.53-1.03.35-.27.8-.4 1.34-.4.6 0 1.05.11 1.38.35.33.24.49.59.49 1.03zm4.29-1.3h1.06v4.75h-1.06v-3.17l-1.87 3.17H76.6v-4.75h1.06v3.17l1.87-3.17zm6.26.85h-1.54v3.9h-1.07v-3.9h-1.53v-.85h4.14v.85zm2.85 3.99a2.2 2.2 0 0 1-1.65-.64c-.42-.42-.63-1-.63-1.7v-.13c0-.48.1-.9.27-1.27a2.04 2.04 0 0 1 1.88-1.19c.65 0 1.15.2 1.5.62.36.41.53 1 .53 1.75v.43h-3.1c.03.4.16.7.39.93.23.23.52.35.87.35.49 0 .89-.2 1.2-.6l.57.55c-.2.29-.45.5-.77.67a2.4 2.4 0 0 1-1.06.23zm-.13-4.07a.9.9 0 0 0-.71.3c-.18.2-.3.5-.35.86h2.04v-.08a1.29 1.29 0 0 0-.29-.8.89.89 0 0 0-.7-.28zm5.83 3.98v-4.75h1.93c.65 0 1.15.11 1.49.34.34.23.5.55.5.98 0 .22-.06.41-.2.59-.14.17-.34.3-.6.4.3.06.55.2.74.39a1 1 0 0 1 .27.7c0 .44-.17.77-.5 1-.32.24-.79.35-1.4.35h-2.23zm1.07-2.02v1.18h1.17c.55 0 .82-.2.82-.59 0-.4-.28-.6-.83-.6H95.4zm0-.77h.88c.6 0 .9-.18.9-.53 0-.38-.28-.57-.85-.58h-.93v1.11zM53.52 29.95h-4.4l-.92 2.65h-2.06l4.3-11.38h1.77l4.3 11.38h-2.06l-.93-2.65zm-3.85-1.6h3.3l-1.65-4.71-1.65 4.72zm14.99.1a5 5 0 0 1-.9 3.14 2.83 2.83 0 0 1-2.38 1.17c-.93 0-1.67-.3-2.23-.92v4.01h-1.9v-11.7H59l.08.86a2.79 2.79 0 0 1 2.27-1.02c1.03 0 1.84.39 2.42 1.16.6.76.89 1.83.89 3.2v.1zm-1.9-.15a3.5 3.5 0 0 0-.5-2.01c-.34-.5-.81-.74-1.44-.74-.78 0-1.33.32-1.67.96v3.75c.34.65.9.98 1.69.98.6 0 1.07-.24 1.41-.73a3.9 3.9 0 0 0 .52-2.21zm10.91.16c0 1.3-.3 2.35-.89 3.13a2.86 2.86 0 0 1-2.39 1.17c-.93 0-1.67-.3-2.23-.92v4.01h-1.9v-11.7h1.76l.07.86a2.79 2.79 0 0 1 2.28-1.02c1.03 0 1.84.39 2.42 1.16.59.76.88 1.83.88 3.2v.1zm-1.89-.16a3.5 3.5 0 0 0-.5-2.01c-.34-.5-.82-.74-1.44-.74-.78 0-1.34.32-1.68.96v3.75c.35.65.91.98 1.7.98.6 0 1.07-.24 1.4-.73.35-.49.52-1.23.52-2.21zm13.62 1.37c0-.5-.18-.89-.53-1.16a6.28 6.28 0 0 0-1.9-.82 9.19 9.19 0 0 1-2.19-.92c-1.04-.65-1.55-1.5-1.55-2.54 0-.92.37-1.68 1.11-2.27.75-.6 1.73-.9 2.92-.9.79 0 1.5.15 2.11.45.62.29 1.11.7 1.47 1.25.35.53.53 1.13.53 1.79H85.4c0-.6-.19-1.06-.56-1.4-.37-.33-.9-.5-1.6-.5-.64 0-1.15.13-1.5.41-.36.28-.54.66-.54 1.16 0 .41.2.76.58 1.04.39.28 1.02.55 1.9.82.9.26 1.6.56 2.14.9.54.33.93.71 1.18 1.15.25.43.37.94.37 1.52 0 .95-.36 1.7-1.09 2.27-.72.56-1.7.84-2.95.84-.82 0-1.58-.15-2.28-.46a3.87 3.87 0 0 1-1.6-1.26 3.16 3.16 0 0 1-.58-1.88h1.98c0 .65.22 1.15.64 1.5a2.8 2.8 0 0 0 1.84.53c.69 0 1.2-.13 1.54-.41.35-.28.53-.65.53-1.11zm5.9-7.58v2.06h1.5v1.4h-1.5v4.72c0 .32.07.56.2.7.12.15.35.22.68.22.22 0 .44-.03.66-.08v1.47c-.43.12-.85.18-1.25.18-1.45 0-2.18-.8-2.18-2.42v-4.79H88v-1.4h1.4v-2.06h1.9zm2.36 6.2c0-.82.17-1.57.5-2.23.32-.67.79-1.18 1.38-1.53a3.9 3.9 0 0 1 2.05-.54c1.14 0 2.06.37 2.77 1.1.71.74 1.1 1.71 1.16 2.92v.45a5 5 0 0 1-.48 2.23 3.52 3.52 0 0 1-1.38 1.53 3.9 3.9 0 0 1-2.06.54c-1.2 0-2.15-.4-2.87-1.2a4.59 4.59 0 0 1-1.07-3.17v-.1zm1.9.17c0 .87.18 1.55.54 2.05.36.49.86.73 1.5.73s1.14-.25 1.5-.75c.35-.5.53-1.23.53-2.2 0-.85-.18-1.53-.55-2.03-.37-.5-.86-.75-1.5-.75-.61 0-1.1.25-1.47.75a3.67 3.67 0 0 0-.55 2.2zm12-2.58a4.7 4.7 0 0 0-.78-.06c-.87 0-1.45.33-1.76 1v5.78h-1.9v-8.45h1.82l.04.94a2.16 2.16 0 0 1 2.58-.99v1.78zm4.76 6.88c-1.2 0-2.18-.38-2.93-1.14a4.15 4.15 0 0 1-1.12-3.03v-.23c0-.85.16-1.6.49-2.26a3.63 3.63 0 0 1 3.34-2.1 3.3 3.3 0 0 1 2.67 1.1c.63.73.94 1.77.94 3.1v.77h-5.52c.05.7.29 1.25.7 1.66.4.4.92.61 1.54.61.87 0 1.58-.35 2.12-1.05l1.03.97c-.34.5-.8.9-1.36 1.18-.56.28-1.2.42-1.9.42zm-.23-7.25c-.52 0-.94.19-1.26.55-.32.37-.52.87-.61 1.52h3.62v-.14a2.29 2.29 0 0 0-.51-1.43c-.3-.33-.71-.5-1.24-.5z"/></g></svg>