<svg xmlns="http://www.w3.org/2000/svg" width="331" height="331" version="1.1"><g fill="none"><rect width="278.34" height="278.34" x="-2" y="-2" stroke="#D7EBF1" stroke-width="4" rx="82" transform="rotate(48.15 119.51 183.35)"/><path fill="#D7EBF1" d="M94.36 106c-2.7 0-4.9 2.17-4.9 4.83v5.08C65.64 118.33 47 138.23 47 162.33 47 188.06 68.25 209 94.36 209c26.1 0 47.35-20.94 47.35-46.67a46 46 0 0 0-9.52-28.04l3.43-3.39 1.5 1.48a3.3 3.3 0 0 0 4.62 0l2.3-2.28a3.18 3.18 0 0 0 0-4.55l-11.54-11.38a3.31 3.31 0 0 0-4.62 0l-2.32 2.27a3.2 3.2 0 0 0 0 4.56l1.5 1.47-3.33 3.28a47.5 47.5 0 0 0-24.47-9.84v-5.08c0-2.66-2.2-4.83-4.9-4.83zm0 3.22c.9 0 1.63.72 1.63 1.6v4.84h-3.27v-4.83c0-.89.74-1.61 1.64-1.61zm35.82 7.23l11.55 11.38-2.3 2.27-11.55-11.38 2.3-2.27zm-35.82 2.42c24.3 0 44.09 19.5 44.09 43.46s-19.78 43.45-44.1 43.45c-24.3 0-44.08-19.5-44.08-43.45 0-23.96 19.78-43.46 44.09-43.46zm35 5.87l3.95 3.9-3.2 3.14a47.52 47.52 0 0 0-3.88-3.95l3.14-3.09zm-35 .57c-.9 0-1.64.73-1.64 1.61v6.44c0 .89.74 1.6 1.64 1.6.9 0 1.63-.71 1.63-1.6v-4.75c18.15.85 32.66 15.63 32.66 33.72 0 9-3.55 17.47-10 23.86a1.6 1.6 0 0 0 0 2.27 1.65 1.65 0 0 0 2.3 0 36.52 36.52 0 0 0 10.97-26.13c0-19.87-15.98-36.13-35.93-36.97-.54-.03-1.08-.05-1.63-.05zm-25.41 10.37c-.41 0-.83.16-1.15.47-7.1 7-11 16.29-11 26.18s3.9 19.18 11 26.18a1.64 1.64 0 0 0 2.31 0c.64-.63.64-1.65 0-2.27a33.35 33.35 0 0 1-10.05-23.91 33.3 33.3 0 0 1 10.05-23.9 1.6 1.6 0 0 0 0-2.28 1.66 1.66 0 0 0-1.16-.47zm25.4 2.5c-.9 0-1.63.72-1.63 1.62v3.22c0 .89.73 1.6 1.64 1.6.9 0 1.63-.71 1.63-1.6v-3.22c0-.9-.73-1.61-1.63-1.61zm-19.59 3.23c-.41 0-.83.15-1.15.47a1.6 1.6 0 0 0 0 2.27l16.34 16.11a4.7 4.7 0 0 0-.5 2.07c0 2.66 2.2 4.83 4.9 4.83s4.9-2.17 4.9-4.83a4.87 4.87 0 0 0-7-4.35l-16.33-16.1a1.65 1.65 0 0 0-1.16-.47zm3.88 47.3a1.63 1.63 0 0 0-1.61.8l-1.64 2.78a1.6 1.6 0 0 0 1.41 2.41c.56 0 1.11-.28 1.41-.8l1.64-2.79a1.6 1.6 0 0 0-1.21-2.4zm31.44 0a1.6 1.6 0 0 0-1.2 2.4l1.62 2.8a1.63 1.63 0 0 0 2.23.58 1.59 1.59 0 0 0 .6-2.2l-1.64-2.78a1.64 1.64 0 0 0-1.61-.8zm-24.19 3.14c-.63.09-1.18.53-1.36 1.18l-.84 3.11a1.6 1.6 0 0 0 1.58 2.02c.72 0 1.38-.47 1.58-1.19l.85-3.1a1.6 1.6 0 0 0-1.16-1.98 1.53 1.53 0 0 0-.65-.04zm16.94 0a1.57 1.57 0 0 0-.66.04 1.6 1.6 0 0 0-1.15 1.97l.85 3.11a1.63 1.63 0 0 0 2 1.14 1.6 1.6 0 0 0 1.15-1.97l-.84-3.1a1.64 1.64 0 0 0-1.35-1.19zm-8.47 1.06c-.9 0-1.64.71-1.64 1.6v3.22c0 .9.73 1.61 1.64 1.61.9 0 1.63-.71 1.63-1.6v-3.22c0-.9-.73-1.61-1.63-1.61z"/></g></svg>