<svg xmlns="http://www.w3.org/2000/svg" width="145" height="44" version="1.1"><g fill="none"><path fill="#243036" fill-rule="evenodd" d="M0 6a6 6 0 0 1 6-6h133a6 6 0 0 1 6 6v32a6 6 0 0 1-6 6H6a6 6 0 0 1-6-6V6z" clip-rule="evenodd"/><path fill="#4DB6AC" d="M15.39 10.77c-.23.06-.39.25-.39.58v20.42c0 .24.1.4.27.46l11.1-10.79L15.4 10.77z"/><path fill="#DCE775" d="M29.43 18.47l-4.57-2.58s-8.38-4.73-8.88-5a.81.81 0 0 0-.6-.12l11 10.67 3.05-2.97z"/><path fill="#D32F2F" d="M15.78 32.15l13.67-7.72-3.08-2.99-11.1 10.8c.14.04.32.02.5-.09z"/><path fill="#FBC02D" d="M33.92 21c-.44-.22-4.46-2.5-4.46-2.5l-.03-.03-3.06 2.97 3.08 3c2.44-1.38 4.27-2.42 4.44-2.5.51-.3.46-.7.03-.93z"/><path fill="#fff" d="M47.85 12.17a.8.8 0 0 0-.33-.69 1.4 1.4 0 0 0-.88-.25c-.32 0-.58.08-.8.25a.79.79 0 0 0-.32.65h-1.1c0-.35.09-.66.28-.93.2-.27.46-.48.8-.63.35-.15.73-.23 1.14-.23.73 0 1.3.16 1.7.48.41.32.62.77.62 1.34 0 .29-.1.56-.27.8s-.42.43-.73.58a1.49 1.49 0 0 1 1.1 1.5c0 .56-.22 1.02-.66 1.36a2.8 2.8 0 0 1-1.76.5c-.45 0-.86-.07-1.22-.24a1.85 1.85 0 0 1-.83-.66 1.7 1.7 0 0 1-.27-.95h1.1c0 .27.12.5.35.7.23.18.52.28.87.28.4 0 .7-.1.95-.28a.87.87 0 0 0 .36-.72c0-.36-.1-.62-.32-.78-.2-.17-.51-.25-.92-.25h-.75v-.88h.71c.79 0 1.18-.32 1.18-.95zm5.3 4.65a1.4 1.4 0 0 1-.12-.44c-.34.35-.76.53-1.25.53-.48 0-.87-.14-1.17-.4a1.3 1.3 0 0 1-.45-1.02c0-.5.18-.9.56-1.16a2.7 2.7 0 0 1 1.62-.41h.65v-.31a.82.82 0 0 0-.2-.6c-.14-.14-.35-.22-.63-.22a.93.93 0 0 0-.6.19.56.56 0 0 0-.23.46h-1.07c0-.26.08-.5.26-.73.17-.23.4-.4.7-.54.3-.13.63-.2 1-.2.56 0 1 .15 1.33.43.33.28.5.67.51 1.18v2.14c0 .43.06.77.18 1.03v.07h-1.09zm-1.17-.77c.2 0 .4-.05.59-.15.19-.1.33-.24.42-.41v-.9h-.57c-.4 0-.7.07-.9.2-.2.14-.3.34-.3.6 0 .2.07.36.2.48a.8.8 0 0 0 .56.18zm6.69-3.12H56.6v3.9h-1.06v-4.76h3.13v.86zm5.09 1.56c0 .74-.17 1.33-.5 1.77a1.6 1.6 0 0 1-1.35.65c-.52 0-.94-.17-1.25-.51v2.25h-1.07v-6.58h.98l.05.48c.31-.38.74-.57 1.28-.57.58 0 1.03.22 1.36.65.33.43.5 1.03.5 1.8v.06zm-1.07-.09c0-.47-.1-.85-.28-1.13a.92.92 0 0 0-.81-.42c-.44 0-.75.18-.94.54v2.11a1 1 0 0 0 .95.56c.34 0 .6-.14.8-.41.19-.28.28-.7.28-1.25zm3.9.9l.97-3.23h1.14l-1.89 5.47c-.29.8-.78 1.2-1.48 1.2-.15 0-.32-.02-.51-.08v-.82l.2.01c.27 0 .47-.05.6-.15.15-.1.25-.26.33-.5l.16-.4-1.67-4.73h1.15l1 3.22zm6.65-1.93c0 .2-.06.4-.2.58-.12.18-.3.32-.53.42.55.2.82.56.82 1.1 0 .44-.18.8-.53 1.05-.36.26-.83.39-1.43.39-.36 0-.7-.06-1-.18-.29-.12-.52-.3-.69-.52a1.3 1.3 0 0 1-.25-.8h1.06c0 .2.09.36.26.49.18.13.4.2.66.2s.46-.07.62-.19a.58.58 0 0 0 .23-.48c0-.23-.07-.4-.2-.5-.14-.1-.34-.15-.63-.15h-.76V14h.79c.48 0 .72-.2.72-.59 0-.2-.07-.34-.21-.45a.9.9 0 0 0-.57-.16.98.98 0 0 0-.59.17.51.51 0 0 0-.24.44H69.5c0-.42.18-.77.53-1.03.35-.27.8-.4 1.34-.4.6 0 1.05.11 1.38.35.33.24.49.59.49 1.03zm4.29-1.3h1.06v4.75h-1.06v-3.17l-1.87 3.17H74.6v-4.75h1.06v3.17l1.87-3.17zm6.26.85h-1.54v3.9h-1.07v-3.9h-1.53v-.85h4.14v.85zm2.85 3.99a2.2 2.2 0 0 1-1.65-.64c-.42-.42-.63-1-.63-1.7v-.13c0-.48.1-.9.27-1.27a2.04 2.04 0 0 1 1.88-1.19c.65 0 1.15.2 1.5.62.36.41.53 1 .53 1.75v.43h-3.1c.03.4.16.7.39.93.23.23.52.35.87.35.49 0 .89-.2 1.2-.6l.57.55c-.2.29-.45.5-.77.67a2.4 2.4 0 0 1-1.06.23zm-.13-4.07a.9.9 0 0 0-.71.3c-.18.2-.3.5-.35.86h2.04v-.08a1.29 1.29 0 0 0-.29-.8.89.89 0 0 0-.7-.28zm9.78 3.98h-1.07V14.9h-1.85v1.92H92.3v-4.75h1.07v1.98h1.85v-1.98h1.07v4.75zm4.3 0a1.4 1.4 0 0 1-.12-.44c-.34.35-.76.53-1.25.53-.48 0-.87-.14-1.17-.4a1.3 1.3 0 0 1-.45-1.02c0-.5.19-.9.56-1.16a2.7 2.7 0 0 1 1.62-.41h.65v-.31a.82.82 0 0 0-.2-.6c-.14-.14-.35-.22-.63-.22a.93.93 0 0 0-.6.19.56.56 0 0 0-.23.46H97.7c0-.26.09-.5.26-.73.17-.23.4-.4.7-.54.3-.13.63-.19 1-.19.56 0 1 .14 1.33.42.33.28.5.67.51 1.18v2.14c0 .43.06.77.18 1.03v.07h-1.09zm-1.17-.77c.2 0 .4-.05.6-.15.18-.1.32-.24.41-.41v-.9h-.57c-.4 0-.7.07-.9.2-.2.14-.3.34-.3.6 0 .2.07.36.2.48a.8.8 0 0 0 .56.18zM53.88 31.12c-.42.54-.99.95-1.72 1.22-.73.28-1.55.42-2.48.42a4.9 4.9 0 0 1-2.53-.65 4.35 4.35 0 0 1-1.7-1.85c-.4-.81-.6-1.75-.62-2.82v-.9c0-1.71.41-3.05 1.23-4.02a4.28 4.28 0 0 1 3.45-1.45 4.5 4.5 0 0 1 3.01.94 4 4 0 0 1 1.35 2.7h-1.94c-.22-1.37-1.01-2.06-2.38-2.06-.89 0-1.56.33-2.03.97-.45.63-.7 1.57-.7 2.8v.88c0 1.22.25 2.18.77 2.86a2.58 2.58 0 0 0 2.16 1.02c1.01 0 1.73-.23 2.16-.69v-2.23h-2.35v-1.5h4.31v4.36zm1.63-2.82c0-.83.16-1.58.49-2.24.33-.67.79-1.18 1.38-1.53a3.9 3.9 0 0 1 2.05-.54c1.14 0 2.06.37 2.77 1.1.72.74 1.1 1.71 1.16 2.92v.45a5 5 0 0 1-.48 2.23 3.52 3.52 0 0 1-1.37 1.53 3.9 3.9 0 0 1-2.06.54c-1.2 0-2.15-.4-2.87-1.2a4.59 4.59 0 0 1-1.07-3.17v-.1zm1.9.16c0 .87.18 1.55.54 2.05.35.49.85.73 1.5.73.64 0 1.13-.25 1.49-.75.36-.5.54-1.23.54-2.2 0-.85-.19-1.53-.56-2.03-.36-.5-.86-.75-1.49-.75-.62 0-1.11.25-1.48.75a3.67 3.67 0 0 0-.54 2.2zm7.2-.16c0-.83.17-1.58.5-2.24.33-.67.79-1.18 1.38-1.53a3.9 3.9 0 0 1 2.05-.54c1.14 0 2.06.37 2.77 1.1.72.74 1.1 1.71 1.16 2.92v.45a5 5 0 0 1-.48 2.23 3.52 3.52 0 0 1-1.37 1.53 3.9 3.9 0 0 1-2.07.54c-1.19 0-2.14-.4-2.86-1.2a4.59 4.59 0 0 1-1.07-3.17v-.1zm1.9.16c0 .87.19 1.55.54 2.05.36.49.86.73 1.5.73.65 0 1.14-.25 1.5-.75.36-.5.54-1.23.54-2.2 0-.85-.19-1.53-.56-2.03-.36-.5-.86-.75-1.5-.75-.61 0-1.1.25-1.47.75a3.67 3.67 0 0 0-.54 2.2zm7.24-.15c0-1.31.3-2.36.92-3.14a2.98 2.98 0 0 1 2.46-1.18c.97 0 1.72.34 2.28 1l.08-.84h1.71v8.2a3.4 3.4 0 0 1-1.04 2.62 3.9 3.9 0 0 1-2.78.96c-.62 0-1.23-.13-1.83-.4a3.2 3.2 0 0 1-1.34-1l.9-1.14c.58.7 1.3 1.04 2.16 1.04.63 0 1.12-.17 1.49-.52.36-.34.54-.84.54-1.5v-.57a2.8 2.8 0 0 1-2.18.92c-1 0-1.8-.4-2.43-1.18a5.12 5.12 0 0 1-.94-3.27zm1.9.17c0 .84.16 1.51.5 2 .36.49.84.73 1.45.73.77 0 1.33-.33 1.7-.98V26.5a1.8 1.8 0 0 0-1.68-.96c-.63 0-1.11.24-1.46.74-.35.5-.52 1.22-.52 2.19zm9.53 4.12h-1.9v-12h1.9v12zm5.8.16c-1.2 0-2.18-.38-2.93-1.14a4.15 4.15 0 0 1-1.12-3.03v-.23c0-.85.16-1.6.48-2.26a3.62 3.62 0 0 1 3.34-2.1 3.3 3.3 0 0 1 2.67 1.1c.63.73.95 1.77.95 3.1v.77h-5.53c.06.7.3 1.25.7 1.66.41.4.93.61 1.55.61.87 0 1.57-.35 2.12-1.05l1.02.97c-.33.5-.79.9-1.36 1.18-.56.28-1.19.42-1.9.42zm-.23-7.25c-.52 0-.94.19-1.27.55-.31.37-.52.87-.6 1.52h3.61v-.14a2.29 2.29 0 0 0-.5-1.43c-.3-.33-.71-.5-1.24-.5zm16.48 2.95c0 1.3-.3 2.35-.89 3.13a2.84 2.84 0 0 1-2.39 1.17c-.92 0-1.67-.3-2.22-.92v4.01h-1.9v-11.7h1.75l.08.86a2.79 2.79 0 0 1 2.27-1.02c1.03 0 1.84.39 2.42 1.16.59.76.88 1.83.88 3.2v.1zm-1.89-.16a3.5 3.5 0 0 0-.5-2.01c-.34-.5-.82-.74-1.44-.74-.78 0-1.33.32-1.67.96v3.75c.34.65.9.98 1.68.98.6 0 1.08-.24 1.42-.73a3.9 3.9 0 0 0 .51-2.21zm5.53 4.3h-1.9v-12h1.9v12zm7.12 0a2.93 2.93 0 0 1-.22-.79c-.6.63-1.34.95-2.22.95-.84 0-1.54-.25-2.07-.73a2.32 2.32 0 0 1-.8-1.8c0-.9.33-1.59 1-2.07a4.86 4.86 0 0 1 2.87-.72h1.16v-.56c0-.44-.12-.79-.37-1.05-.24-.26-.61-.4-1.11-.4-.44 0-.79.12-1.07.33a1 1 0 0 0-.41.82h-1.9c0-.46.16-.9.46-1.3.31-.4.73-.72 1.25-.95a4.43 4.43 0 0 1 1.78-.34c.99 0 1.77.25 2.36.75.6.5.9 1.2.9 2.1v3.8c0 .77.12 1.37.33 1.83v.13h-1.94zm-2.08-1.37c.37 0 .72-.09 1.05-.27.33-.18.58-.43.75-.73v-1.6h-1.02c-.7 0-1.23.12-1.59.37a1.2 1.2 0 0 0-.53 1.04c0 .36.12.65.36.87.24.22.57.32.98.32zm8.52-1.35l1.72-5.73h2.02l-3.36 9.73c-.51 1.42-1.39 2.13-2.62 2.13a3.4 3.4 0 0 1-.92-.14V34.4l.36.03c.48 0 .84-.09 1.08-.27.25-.17.44-.46.58-.87l.27-.73-2.97-8.41h2.05l1.79 5.73z"/></g></svg>