<svg xmlns="http://www.w3.org/2000/svg" width="36" height="36" version="1.1"><path fill="#243036" d="M18 0c-.4 0-.8.13-1.13.4l-2.74 2.22a.6.6 0 0 1-.47.12l-3.48-.55a1.8 1.8 0 0 0-1.96 1.13l-1.26 3.3a.6.6 0 0 1-.35.33l-3.3 1.27a1.8 1.8 0 0 0-1.12 1.95l.55 3.49a.6.6 0 0 1-.12.47L.4 16.87a1.8 1.8 0 0 0 0 2.26l2.22 2.74c.1.13.15.3.12.47l-.55 3.48a1.8 1.8 0 0 0 1.13 1.96l3.3 1.26a.6.6 0 0 1 .34.35l1.26 3.29a1.8 1.8 0 0 0 1.96 1.13l3.48-.55a.6.6 0 0 1 .47.12l2.74 2.22a1.8 1.8 0 0 0 2.26 0l2.74-2.22a.6.6 0 0 1 .47-.13l3.48.56a1.8 1.8 0 0 0 1.96-1.13l1.26-3.3a.61.61 0 0 1 .35-.34l3.29-1.26a1.8 1.8 0 0 0 1.13-1.96l-.55-3.48a.6.6 0 0 1 .12-.47l2.22-2.74a1.8 1.8 0 0 0 0-2.26l-2.22-2.74a.59.59 0 0 1-.12-.47l.55-3.49a1.8 1.8 0 0 0-1.13-1.95l-3.3-1.27a.6.6 0 0 1-.34-.34l-1.26-3.3a1.8 1.8 0 0 0-1.96-1.12l-3.48.55a.6.6 0 0 1-.47-.12L19.13.4A1.8 1.8 0 0 0 18 0zm0 1.2a.6.6 0 0 1 .38.13l2.74 2.22c.4.32.9.46 1.4.38l3.5-.56a.6.6 0 0 1 .64.38l1.27 3.3c.18.47.55.84 1.03 1.02l3.3 1.27c.25.1.41.37.37.65l-.55 3.48c-.08.5.05 1.02.37 1.41l2.22 2.74a.6.6 0 0 1 0 .76l-2.22 2.74c-.32.4-.45.9-.37 1.4l.55 3.49a.6.6 0 0 1-.38.65l-3.3 1.27c-.47.18-.84.55-1.02 1.03l-1.27 3.29a.6.6 0 0 1-.65.38l-3.48-.56a1.8 1.8 0 0 0-1.41.38l-2.74 2.22a.6.6 0 0 1-.76 0l-2.74-2.22a1.8 1.8 0 0 0-1.4-.38l-3.5.56a.6.6 0 0 1-.64-.38l-1.27-3.3a1.79 1.79 0 0 0-1.03-1.02l-3.3-1.27a.6.6 0 0 1-.37-.65l.56-3.48a1.8 1.8 0 0 0-.38-1.42l-2.22-2.73a.6.6 0 0 1 0-.76l2.22-2.74c.32-.4.46-.9.38-1.41l-.56-3.48a.6.6 0 0 1 .38-.65l3.3-1.27c.47-.18.84-.55 1.02-1.03l1.27-3.3a.6.6 0 0 1 .65-.37l3.48.55a1.8 1.8 0 0 0 1.41-.37l2.74-2.22a.6.6 0 0 1 .38-.14zm0 4.24a.6.6 0 0 0-.6.6v1.19a.6.6 0 0 0 1.2 0v-1.2a.6.6 0 0 0-.6-.6zm-3.02.4c-.07 0-.15 0-.23.02a.6.6 0 0 0-.43.73l.31 1.16a.6.6 0 0 0 .74.42.6.6 0 0 0 .42-.73l-.31-1.15a.6.6 0 0 0-.5-.44zm6.03 0a.6.6 0 0 0-.5.45l-.3 1.15a.6.6 0 0 0 1.16.31l.3-1.16a.6.6 0 0 0-.66-.74zm-9.07 1.2a.6.6 0 0 0-.44.9l.6 1.03c.1.2.31.3.52.3a.6.6 0 0 0 .51-.9l-.6-1.03a.6.6 0 0 0-.59-.3zm12.12 0a.6.6 0 0 0-.6.3l-.6 1.03a.6.6 0 0 0 .52.9c.21 0 .41-.1.52-.3l.6-1.03a.6.6 0 0 0-.44-.9zM9.54 8.94a.6.6 0 0 0-.42.18.6.6 0 0 0 0 .84l.84.85a.6.6 0 0 0 .85 0 .6.6 0 0 0 0-.85l-.85-.84a.58.58 0 0 0-.42-.18zm16.92 0a.6.6 0 0 0-.42.18l-.85.84a.6.6 0 0 0 0 .85.6.6 0 0 0 .85 0l.84-.85a.6.6 0 0 0 0-.84.58.58 0 0 0-.42-.18zm-5.42 1.88a.6.6 0 0 0-.58.32L13.88 24.3a.6.6 0 0 0 .53.88.6.6 0 0 0 .53-.32l6.58-13.16a.6.6 0 0 0-.48-.88zm-13.33.6a.6.6 0 0 0-.37 1.11l1.03.6a.6.6 0 0 0 .6-1.03l-1.03-.6a.58.58 0 0 0-.23-.08zm20.58 0a.59.59 0 0 0-.23.08l-1.03.6a.6.6 0 1 0 .6 1.03l1.03-.6a.6.6 0 0 0-.37-1.1zm-14.48.6c-.99 0-1.8.8-1.8 1.8v1.79c0 .98.81 1.8 1.8 1.8h.6c.99 0 1.8-.82 1.8-1.8v-1.8c0-.99-.81-1.8-1.8-1.8h-.6zm0 1.2h.6c.33 0 .6.26.6.6v1.79a.6.6 0 0 1-.6.6h-.6a.6.6 0 0 1-.6-.6v-1.8c0-.33.27-.6.6-.6zm15.83 1.09a.65.65 0 0 0-.24.02l-1.15.3a.6.6 0 1 0 .31 1.16l1.15-.31a.6.6 0 1 0-.07-1.17zm-23.28 0a.6.6 0 0 0-.07 1.17l1.15.31.16.02a.6.6 0 0 0 .15-1.18l-1.15-.3a.58.58 0 0 0-.24-.02zm-.33 3.1a.6.6 0 0 0 0 1.19h1.2a.6.6 0 0 0 0-1.2h-1.2zm22.74 0a.6.6 0 0 0 0 1.19h1.2a.6.6 0 0 0 0-1.2h-1.2zm-7.78 1.19c-.99 0-1.8.8-1.8 1.8v1.79c0 .99.81 1.8 1.8 1.8h.6c.99 0 1.8-.81 1.8-1.8v-1.8c0-.99-.81-1.8-1.8-1.8h-.6zm0 1.2h.6c.33 0 .6.26.6.6v1.79a.6.6 0 0 1-.6.6h-.6a.6.6 0 0 1-.6-.6v-1.8c0-.33.27-.6.6-.6zm-13.31.4a.58.58 0 0 0-.24 0l-1.15.32a.6.6 0 1 0 .3 1.15l1.16-.3a.6.6 0 0 0 .43-.74.6.6 0 0 0-.5-.44zm20.64 0a.6.6 0 0 0-.07 1.17l1.15.3c.05.02.1.02.16.02a.6.6 0 0 0 .16-1.18l-1.16-.3a.58.58 0 0 0-.24-.02zM8.6 22.78a.64.64 0 0 0-.23.08l-1.03.6a.6.6 0 1 0 .6 1.03l1.03-.6a.6.6 0 0 0 .22-.82.6.6 0 0 0-.6-.3zm18.8 0a.6.6 0 0 0-.37 1.11l1.03.6a.6.6 0 0 0 .82-.22.6.6 0 0 0-.22-.82l-1.03-.6a.6.6 0 0 0-.23-.07zm-17.02 2.23a.6.6 0 0 0-.42.17l-.84.85a.6.6 0 0 0 0 .84.59.59 0 0 0 .84 0l.85-.84a.6.6 0 0 0 0-.85.6.6 0 0 0-.43-.17zm15.24 0a.6.6 0 0 0-.43.17.6.6 0 0 0 0 .85l.85.84a.59.59 0 0 0 .84 0 .6.6 0 0 0 0-.84l-.84-.85a.6.6 0 0 0-.42-.17zm-2.31 1.71a.6.6 0 0 0-.44.9l.6 1.03a.6.6 0 0 0 .81.22.6.6 0 0 0 .22-.82l-.6-1.03a.6.6 0 0 0-.59-.3zm-10.62 0a.6.6 0 0 0-.6.3l-.59 1.03a.6.6 0 0 0 .52.9c.2 0 .4-.1.51-.3l.6-1.04a.6.6 0 0 0-.44-.89zm8.18 1.08a.6.6 0 0 0-.66.75l.3 1.15a.6.6 0 0 0 .74.42.6.6 0 0 0 .42-.73l-.3-1.15a.6.6 0 0 0-.5-.44zm-5.74 0a.6.6 0 0 0-.5.44l-.3 1.15a.6.6 0 1 0 1.15.31l.31-1.16a.6.6 0 0 0-.66-.74zm2.87.36a.6.6 0 0 0-.6.6v1.2a.6.6 0 0 0 1.2 0v-1.2a.6.6 0 0 0-.6-.6z"/></svg>