<svg width="34" height="36" viewBox="0 0 34 36" version="1.1" xmlns="http://www.w3.org/2000/svg" xmlns:xlink="http://www.w3.org/1999/xlink">
<g id="Canvas" fill="none">
<g id="icons8-cash_in_hand">
<g id="surface1">
<path id="Vector" d="M 16.9978 0C 15.7361 0 14.7201 0.979981 14.6802 2.22803L 14.6536 3.11133C 14.1822 2.58398 13.4915 2.25 12.7234 2.25C 11.3178 2.25 10.1867 3.34424 10.1535 4.7417L 10.076 7.875L 1.7 7.875C 0.763672 7.875 0 8.63306 0 9.5625L 0 25.3125C 0 26.2419 0.763672 27 1.7 27L 5.27044 27C 5.67109 27.8569 6.16914 28.6699 6.77344 29.417L 9.153 32.3679L 10.5121 35.0684C 10.8021 35.6418 11.3865 36 12.0328 36L 25.7944 36C 26.547 36 27.2 35.521 27.4214 34.8091L 28.8491 30.1992C 29.1723 29.1555 29.3316 28.0833 29.3538 27L 32.3 27C 33.2363 27 34 26.2419 34 25.3125L 34 9.5625C 34 8.63306 33.2363 7.875 32.3 7.875L 28.2559 7.875C 27.8906 6.88843 26.9499 6.1875 25.8342 6.1875C 25.0772 6.1875 24.3954 6.5105 23.9195 7.02246L 23.8553 4.7373C 23.8155 3.34204 22.6822 2.25 21.2766 2.25C 20.5107 2.25 19.8201 2.58618 19.3464 3.11572L 19.3198 2.22803C 19.2799 0.979981 18.2617 0 16.9978 0ZM 17.0022 1.125C 17.6464 1.125 18.1665 1.62598 18.1865 2.26318L 18.3613 7.875L 15.6387 7.875L 15.8135 2.26318C 15.8335 1.62598 16.3536 1.125 17.0022 1.125ZM 12.7279 3.375C 13.5203 3.375 14.1667 4.0166 14.1667 4.80322L 14.1667 7.875L 11.2094 7.875L 11.2868 4.76807C 11.3046 4.00122 11.9509 3.375 12.7279 3.375ZM 21.2766 3.375C 22.0646 3.375 22.6999 3.98804 22.722 4.76807L 22.8083 7.875L 19.8333 7.875L 19.8333 4.80762C 19.8333 4.0188 20.4819 3.375 21.2766 3.375ZM 25.8365 7.3125C 26.3035 7.3125 26.7197 7.53442 26.9875 7.875L 24.6854 7.875C 24.9555 7.53442 25.3672 7.3125 25.8365 7.3125ZM 1.7 9L 32.3 9C 32.6121 9 32.8667 9.25269 32.8667 9.5625L 32.8667 25.3125C 32.8667 25.6223 32.6121 25.875 32.3 25.875L 15.6652 25.875C 14.4699 25.875 13.3587 25.4575 12.4733 24.75C 12.7832 24.7456 13.0333 24.4973 13.0333 24.1875L 13.0333 23.0625C 13.0333 22.7505 12.781 22.5 12.4667 22.5C 12.1523 22.5 11.9 22.7505 11.9 23.0625L 11.9 24.1875C 11.9 24.1985 11.9066 24.2095 11.9066 24.2205C 11.5082 23.7876 11.174 23.2866 10.9415 22.7197L 9.37656 18.9053C 8.72799 17.3188 7.40208 16.1389 5.74414 15.6687C 5.1974 15.5149 4.61523 15.6379 4.17917 16.0027C 3.74753 16.3652 3.52617 16.9167 3.58594 17.4749L 4.23229 23.3174C 4.32747 24.1941 4.52448 25.051 4.81003 25.875L 1.7 25.875C 1.38789 25.875 1.13333 25.6223 1.13333 25.3125L 1.13333 9.5625C 1.13333 9.25269 1.38789 9 1.7 9ZM 9.63333 10.125C 9.31901 10.125 9.06667 10.3755 9.06667 10.6875L 9.06667 11.8125C 9.06667 12.1245 9.31901 12.375 9.63333 12.375C 9.94766 12.375 10.2 12.1245 10.2 11.8125L 10.2 10.6875C 10.2 10.3755 9.94766 10.125 9.63333 10.125ZM 12.4667 10.125C 12.1523 10.125 11.9 10.3755 11.9 10.6875L 11.9 11.8125C 11.9 12.1245 12.1523 12.375 12.4667 12.375C 12.781 12.375 13.0333 12.1245 13.0333 11.8125L 13.0333 10.6875C 13.0333 10.3755 12.781 10.125 12.4667 10.125ZM 15.3 10.125C 14.9857 10.125 14.7333 10.3755 14.7333 10.6875L 14.7333 11.8125C 14.7333 11.8411 14.7466 11.8652 14.751 11.8938C 13.0643 12.9045 11.9 15.0073 11.9 17.4375C 11.9 19.8677 13.0643 21.9705 14.751 22.9812C 14.7466 23.0098 14.7333 23.0339 14.7333 23.0625L 14.7333 24.1875C 14.7333 24.4995 14.9857 24.75 15.3 24.75C 15.6143 24.75 15.8667 24.4995 15.8667 24.1875L 15.8667 23.4668C 16.2319 23.5657 16.6104 23.625 17 23.625C 17.3896 23.625 17.7681 23.5657 18.1333 23.4668L 18.1333 24.1875C 18.1333 24.4995 18.3857 24.75 18.7 24.75C 19.0143 24.75 19.2667 24.4995 19.2667 24.1875L 19.2667 23.0625C 19.2667 23.0339 19.2534 23.0098 19.249 22.9812C 20.9357 21.9705 22.1 19.8677 22.1 17.4375C 22.1 15.0073 20.9357 12.9045 19.249 11.8938C 19.2534 11.8652 19.2667 11.8411 19.2667 11.8125L 19.2667 10.6875C 19.2667 10.3755 19.0143 10.125 18.7 10.125C 18.3857 10.125 18.1333 10.3755 18.1333 10.6875L 18.1333 11.4082C 17.7681 11.3093 17.3896 11.25 17 11.25C 16.6104 11.25 16.2319 11.3093 15.8667 11.4082L 15.8667 10.6875C 15.8667 10.3755 15.6143 10.125 15.3 10.125ZM 21.5333 10.125C 21.219 10.125 20.9667 10.3755 20.9667 10.6875L 20.9667 11.8125C 20.9667 12.1245 21.219 12.375 21.5333 12.375C 21.8477 12.375 22.1 12.1245 22.1 11.8125L 22.1 10.6875C 22.1 10.3755 21.8477 10.125 21.5333 10.125ZM 24.3667 10.125C 24.0523 10.125 23.8 10.3755 23.8 10.6875L 23.8 11.8125C 23.8 12.1245 24.0523 12.375 24.3667 12.375C 24.681 12.375 24.9333 12.1245 24.9333 11.8125L 24.9333 10.6875C 24.9333 10.3755 24.681 10.125 24.3667 10.125ZM 2.83333 10.6875C 2.51901 10.6875 2.26667 10.938 2.26667 11.25C 2.26667 11.562 2.51901 11.8125 2.83333 11.8125L 5.66667 11.8125C 5.98099 11.8125 6.23333 11.562 6.23333 11.25C 6.23333 10.938 5.98099 10.6875 5.66667 10.6875L 2.83333 10.6875ZM 28.3333 10.6875C 28.019 10.6875 27.7667 10.938 27.7667 11.25C 27.7667 11.562 28.019 11.8125 28.3333 11.8125L 31.1667 11.8125C 31.481 11.8125 31.7333 11.562 31.7333 11.25C 31.7333 10.938 31.481 10.6875 31.1667 10.6875L 28.3333 10.6875ZM 17 12.375C 19.187 12.375 20.9667 14.6448 20.9667 17.4375C 20.9667 20.2302 19.187 22.5 17 22.5C 14.813 22.5 13.0333 20.2302 13.0333 17.4375C 13.0333 14.6448 14.813 12.375 17 12.375ZM 27.2 15.1875C 25.9493 15.1875 24.9333 16.196 24.9333 17.4375C 24.9333 18.679 25.9493 19.6875 27.2 19.6875C 28.4507 19.6875 29.4667 18.679 29.4667 17.4375C 29.4667 16.196 28.4507 15.1875 27.2 15.1875ZM 27.2 16.1257C 27.9283 16.1257 28.5215 16.7146 28.5215 17.4375C 28.5215 18.1604 27.9283 18.7493 27.2 18.7493C 26.4717 18.7493 25.8785 18.1604 25.8785 17.4375C 25.8785 16.7146 26.4717 16.1257 27.2 16.1257ZM 5.29479 16.7278C 5.33906 16.73 5.38776 16.7366 5.43424 16.752C 6.75352 17.1255 7.80937 18.0659 8.32734 19.3293L 9.8901 23.1438C 10.8508 25.4861 13.1174 27 15.6652 27L 28.2249 27C 28.2005 27.9712 28.0566 28.9336 27.7667 29.8674L 26.3389 34.4773C 26.2637 34.7146 26.0467 34.875 25.7944 34.875L 12.0328 34.875C 11.8181 34.875 11.6233 34.7563 11.5281 34.5652L 10.1402 31.8098C 10.1314 31.7922 10.1137 31.7812 10.1026 31.7637C 10.0915 31.7461 10.0871 31.7263 10.076 31.7109L 7.65664 28.7139C 7.07005 27.9844 6.61406 27.1494 6.09831 26.0859C 5.71758 25.1653 5.46745 24.1941 5.35677 23.1943L 4.71263 17.3518C 4.69271 17.1628 4.76575 16.9849 4.91185 16.8618C 5.02253 16.7695 5.15534 16.7234 5.29479 16.7278ZM 21.5333 22.5C 21.219 22.5 20.9667 22.7505 20.9667 23.0625L 20.9667 24.1875C 20.9667 24.4995 21.219 24.75 21.5333 24.75C 21.8477 24.75 22.1 24.4995 22.1 24.1875L 22.1 23.0625C 22.1 22.7505 21.8477 22.5 21.5333 22.5ZM 24.3667 22.5C 24.0523 22.5 23.8 22.7505 23.8 23.0625L 23.8 24.1875C 23.8 24.4995 24.0523 24.75 24.3667 24.75C 24.681 24.75 24.9333 24.4995 24.9333 24.1875L 24.9333 23.0625C 24.9333 22.7505 24.681 22.5 24.3667 22.5ZM 28.3333 23.0625C 28.019 23.0625 27.7667 23.313 27.7667 23.625C 27.7667 23.937 28.019 24.1875 28.3333 24.1875L 31.1667 24.1875C 31.481 24.1875 31.7333 23.937 31.7333 23.625C 31.7333 23.313 31.481 23.0625 31.1667 23.0625L 28.3333 23.0625Z" fill="#243036"/>
</g>
</g>
</g>
</svg>
