<svg xmlns="http://www.w3.org/2000/svg" width="61" height="53" version="1.1"><g fill="none"><path fill="#D3D808" d="M13.03 0a4.8 4.8 0 0 0-3.38 1.39L1.4 9.58A4.7 4.7 0 0 0 0 12.92v37.24A2.86 2.86 0 0 0 2.86 53h38.16a2.86 2.86 0 0 0 2.86-2.84v-2.84h14.26A2.86 2.86 0 0 0 61 44.48V12.3a2.86 2.86 0 0 0-2.86-2.84H43.88V2.84A2.86 2.86 0 0 0 41.02 0h-28zm.32 1.9h27.67c.52 0 .95.42.95.94v6.62H29.52a2.86 2.86 0 0 0-2.86 2.84v32.18a2.86 2.86 0 0 0 2.86 2.84h12.45v2.84c0 .52-.43.95-.95.95H2.86a.95.95 0 0 1-.95-.95V13.25h8.58a2.86 2.86 0 0 0 2.86-2.84V1.9zm-1.9.47v8.04c0 .52-.43.95-.96.95H2.4c.1-.16.22-.3.36-.44L11 2.72c.14-.13.29-.25.45-.35zm18.07 8.99h28.62c.52 0 .95.42.95.94v10.37H28.57V12.3c0-.52.43-.94.95-.94zm-15.21 3.78a8.56 8.56 0 0 0-8.59 8.52c0 4.7 3.86 8.52 8.59 8.52a8.56 8.56 0 0 0 8.58-8.52c0-4.7-3.85-8.52-8.58-8.52zm-.96 1.97v6.4c0 .18.07.34.17.5.04.12.11.24.21.34l4.62 4.58a6.68 6.68 0 0 1-10.72-5.27c0-3.33 2.5-6.09 5.72-6.55zm1.91 0A6.65 6.65 0 0 1 21 23.66c0 1.47-.5 2.82-1.3 3.92l-4.43-4.39v-6.08zm13.3 7.45H59.1v19.92c0 .52-.43.95-.95.95H29.52a.95.95 0 0 1-.95-.95V24.56zm3.87 1.9a1.9 1.9 0 0 0-1.9 1.88v3.79c0 1.04.85 1.9 1.9 1.9h3.82a1.9 1.9 0 0 0 1.9-1.9v-3.79a1.9 1.9 0 0 0-1.9-1.89h-3.82zm9.54 0a1.9 1.9 0 0 0-1.9 1.88v3.79c0 1.04.85 1.9 1.9 1.9h3.82a1.9 1.9 0 0 0 1.9-1.9v-3.79a1.9 1.9 0 0 0-1.9-1.89h-3.82zm9.54 0a1.9 1.9 0 0 0-1.9 1.88V41.6c0 1.05.85 1.9 1.9 1.9h3.82a1.9 1.9 0 0 0 1.9-1.9V28.34a1.9 1.9 0 0 0-1.9-1.89H51.5zm-19.08 1.88h3.82v3.79h-3.82v-3.79zm9.54 0h3.82v3.79h-3.82v-3.79zm9.54 0h3.82V41.6H51.5V28.34zm-19.08 7.58a1.9 1.9 0 0 0-1.9 1.89v3.78c0 1.05.85 1.9 1.9 1.9h3.82a1.9 1.9 0 0 0 1.9-1.9v-3.78a1.9 1.9 0 0 0-1.9-1.9h-3.82zm9.54 0a1.9 1.9 0 0 0-1.9 1.89v3.78c0 1.05.85 1.9 1.9 1.9h3.82a1.9 1.9 0 0 0 1.9-1.9v-3.78a1.9 1.9 0 0 0-1.9-1.9h-3.82zm-29.57.04a.95.95 0 0 0-.95.95v1.9H8.58a.95.95 0 0 0-.95.94v5.63h-2.9a.95.95 0 0 0-.96.95c0 .52.43.94.95.94H23.8c.52 0 .95-.42.95-.94a.95.95 0 0 0-.95-.95h-2.81v-2.8a.95.95 0 0 0-.96-.94h-2.86v-4.73a.95.95 0 0 0-.95-.95H12.4zm20.03 1.85h3.82v3.78h-3.82v-3.78zm9.54 0h3.82v3.78h-3.82v-3.78zm-28.62.05h1.91v7.52h-1.9v-7.52zM9.54 40.7h1.9v4.68h-1.9V40.7zm7.63 2.84h1.9v1.84h-1.9v-1.84z"/><path fill="url(#paint0_linear)" d="M13.03 0a4.8 4.8 0 0 0-3.38 1.39L1.4 9.58A4.7 4.7 0 0 0 0 12.92v37.24A2.86 2.86 0 0 0 2.86 53h38.16a2.86 2.86 0 0 0 2.86-2.84v-2.84h14.26A2.86 2.86 0 0 0 61 44.48V12.3a2.86 2.86 0 0 0-2.86-2.84H43.88V2.84A2.86 2.86 0 0 0 41.02 0h-28zm.32 1.9h27.67c.52 0 .95.42.95.94v6.62H29.52a2.86 2.86 0 0 0-2.86 2.84v32.18a2.86 2.86 0 0 0 2.86 2.84h12.45v2.84c0 .52-.43.95-.95.95H2.86a.95.95 0 0 1-.95-.95V13.25h8.58a2.86 2.86 0 0 0 2.86-2.84V1.9zm-1.9.47v8.04c0 .52-.43.95-.96.95H2.4c.1-.16.22-.3.36-.44L11 2.72c.14-.13.29-.25.45-.35zm18.07 8.99h28.62c.52 0 .95.42.95.94v10.37H28.57V12.3c0-.52.43-.94.95-.94zm-15.21 3.78a8.56 8.56 0 0 0-8.59 8.52c0 4.7 3.86 8.52 8.59 8.52a8.56 8.56 0 0 0 8.58-8.52c0-4.7-3.85-8.52-8.58-8.52zm-.96 1.97v6.4c0 .18.07.34.17.5.04.12.11.24.21.34l4.62 4.58a6.68 6.68 0 0 1-10.72-5.27c0-3.33 2.5-6.09 5.72-6.55zm1.91 0A6.65 6.65 0 0 1 21 23.66c0 1.47-.5 2.82-1.3 3.92l-4.43-4.39v-6.08zm13.3 7.45H59.1v19.92c0 .52-.43.95-.95.95H29.52a.95.95 0 0 1-.95-.95V24.56zm3.87 1.9a1.9 1.9 0 0 0-1.9 1.88v3.79c0 1.04.85 1.9 1.9 1.9h3.82a1.9 1.9 0 0 0 1.9-1.9v-3.79a1.9 1.9 0 0 0-1.9-1.89h-3.82zm9.54 0a1.9 1.9 0 0 0-1.9 1.88v3.79c0 1.04.85 1.9 1.9 1.9h3.82a1.9 1.9 0 0 0 1.9-1.9v-3.79a1.9 1.9 0 0 0-1.9-1.89h-3.82zm9.54 0a1.9 1.9 0 0 0-1.9 1.88V41.6c0 1.05.85 1.9 1.9 1.9h3.82a1.9 1.9 0 0 0 1.9-1.9V28.34a1.9 1.9 0 0 0-1.9-1.89H51.5zm-19.08 1.88h3.82v3.79h-3.82v-3.79zm9.54 0h3.82v3.79h-3.82v-3.79zm9.54 0h3.82V41.6H51.5V28.34zm-19.08 7.58a1.9 1.9 0 0 0-1.9 1.89v3.78c0 1.05.85 1.9 1.9 1.9h3.82a1.9 1.9 0 0 0 1.9-1.9v-3.78a1.9 1.9 0 0 0-1.9-1.9h-3.82zm9.54 0a1.9 1.9 0 0 0-1.9 1.89v3.78c0 1.05.85 1.9 1.9 1.9h3.82a1.9 1.9 0 0 0 1.9-1.9v-3.78a1.9 1.9 0 0 0-1.9-1.9h-3.82zm-29.57.04a.95.95 0 0 0-.95.95v1.9H8.58a.95.95 0 0 0-.95.94v5.63h-2.9a.95.95 0 0 0-.96.95c0 .52.43.94.95.94H23.8c.52 0 .95-.42.95-.94a.95.95 0 0 0-.95-.95h-2.81v-2.8a.95.95 0 0 0-.96-.94h-2.86v-4.73a.95.95 0 0 0-.95-.95H12.4zm20.03 1.85h3.82v3.78h-3.82v-3.78zm9.54 0h3.82v3.78h-3.82v-3.78zm-28.62.05h1.91v7.52h-1.9v-7.52zM9.54 40.7h1.9v4.68h-1.9V40.7zm7.63 2.84h1.9v1.84h-1.9v-1.84z"/></g><defs><linearGradient id="paint0_linear" x2="1" gradientTransform="matrix(-59.5814 -21.8974 31.5006 -29.8265 45.25 48.8)" gradientUnits="userSpaceOnUse"><stop stop-color="#58C0BA"/><stop offset="1" stop-color="#5E81DE"/></linearGradient></defs></svg>