<svg xmlns="http://www.w3.org/2000/svg" width="36" height="36" version="1.1"><path fill="#243036" d="M18 0c-.4 0-.8.13-1.13.4l-2.74 2.22a.6.6 0 0 1-.47.12l-3.48-.55a1.8 1.8 0 0 0-1.96 1.13l-1.26 3.3a.6.6 0 0 1-.35.33l-3.3 1.27a1.8 1.8 0 0 0-1.12 1.95l.55 3.49a.6.6 0 0 1-.12.47L.4 16.87a1.8 1.8 0 0 0 0 2.26l2.22 2.74c.1.13.15.3.12.47l-.55 3.48a1.8 1.8 0 0 0 1.13 1.96l3.3 1.26a.6.6 0 0 1 .34.35l1.26 3.29a1.8 1.8 0 0 0 1.96 1.13l3.48-.55a.6.6 0 0 1 .47.12l2.74 2.22a1.8 1.8 0 0 0 2.26 0l2.74-2.22a.6.6 0 0 1 .47-.13l3.48.56a1.8 1.8 0 0 0 1.96-1.13l1.26-3.3a.61.61 0 0 1 .35-.34l3.29-1.26a1.8 1.8 0 0 0 1.13-1.96l-.55-3.48a.6.6 0 0 1 .12-.47l2.22-2.74a1.8 1.8 0 0 0 0-2.26l-2.22-2.74a.59.59 0 0 1-.12-.47l.55-3.49a1.8 1.8 0 0 0-1.13-1.95l-3.3-1.27a.6.6 0 0 1-.34-.34l-1.26-3.3a1.8 1.8 0 0 0-1.96-1.12l-3.48.55a.6.6 0 0 1-.47-.12L19.13.4A1.8 1.8 0 0 0 18 0zm0 1.2a.6.6 0 0 1 .38.13l2.74 2.22c.4.32.9.46 1.4.38l3.5-.56a.6.6 0 0 1 .64.38l1.27 3.3c.18.47.55.84 1.03 1.02l3.3 1.27c.25.1.41.37.37.65l-.55 3.48c-.08.5.05 1.02.37 1.41l2.22 2.74a.6.6 0 0 1 0 .76l-2.22 2.74c-.32.4-.45.9-.37 1.4l.55 3.49a.6.6 0 0 1-.38.65l-3.3 1.27c-.47.18-.84.55-1.02 1.03l-1.27 3.29a.6.6 0 0 1-.65.38l-3.48-.56a1.8 1.8 0 0 0-1.41.38l-2.74 2.22a.6.6 0 0 1-.76 0l-2.74-2.22a1.8 1.8 0 0 0-1.4-.38l-3.5.56a.6.6 0 0 1-.64-.38l-1.1-2.88h.15a3 3 0 0 0 2.3-1.1.6.6 0 0 0 .2.1 7.32 7.32 0 0 0 2.06.18l9.85-.62a1.97 1.97 0 0 0 1.36-3.25 2.1 2.1 0 0 0 .86-1.7v-.27c0-.5-.17-.94-.45-1.3a2.24 2.24 0 0 0 .42-3.7c.49-.4.79-1.02.79-1.7v-.12c0-1.17-.95-2.08-2.12-2.08h-7.19l1-4.05A2.86 2.86 0 0 0 14.7 6.2h-.12a.6.6 0 0 0-.55.36l-3.64 8a2.93 2.93 0 0 0-2-.74H3.95c0-.1 0-.24-.02-.34L3.37 10a.6.6 0 0 1 .38-.65l3.3-1.27c.47-.18.84-.55 1.02-1.03l1.27-3.3a.6.6 0 0 1 .65-.37l3.48.55a1.8 1.8 0 0 0 1.41-.37l2.74-2.22A.6.6 0 0 1 18 1.2zm3.01 4.65a.6.6 0 0 0-.5.44l-.3 1.15a.6.6 0 0 0 .58.76.6.6 0 0 0 .58-.45l.3-1.15a.6.6 0 0 0-.66-.75zm3.05 1.2a.6.6 0 0 0-.6.29l-.6 1.03a.6.6 0 0 0 .52.9c.21 0 .41-.1.52-.3l.6-1.03a.6.6 0 0 0-.44-.9zm-9.11.36a1.67 1.67 0 0 1 1.37 2.06l-1.08 4.3h-.67a.6.6 0 0 0 0 1.2h9.1c.5 0 .91.4.91.92V16c0 .51-.36.94-.87 1.03l-.9.15a.6.6 0 1 0 .1 1.19h.63a1.04 1.04 0 0 1 .17 2.07l-.9.15a.6.6 0 0 0-.5.64c.03.3.28.55.6.55.5 0 .91.4.91.91v.28c0 .43-.3.81-.73.9l-.68.13a.6.6 0 0 0-.48.65c.03.3.3.54.6.54h.14a.78.78 0 0 1 .78.77c0 .4-.32.74-.73.76l-9.85.62a6.48 6.48 0 0 1-1.63-.13c.08-.27.14-.55.14-.85v-9.6c0-.42-.08-.82-.24-1.17a.59.59 0 0 0 .19-.23l3.62-7.96zm11.51 1.53a.6.6 0 0 0-.42.18l-.85.84a.6.6 0 0 0 0 .85.6.6 0 0 0 .85 0l.84-.85a.6.6 0 0 0 0-.84.58.58 0 0 0-.42-.18zm1.83 2.48a.58.58 0 0 0-.23.08l-1.03.6a.6.6 0 1 0 .6 1.03l1.03-.6a.6.6 0 0 0-.37-1.1zm1.35 2.89a.65.65 0 0 0-.24.02l-1.15.3a.6.6 0 1 0 .3 1.16l1.16-.31a.6.6 0 1 0-.07-1.17zm-26.13.62c.05.02.1.04.15.04H8.4c.99 0 1.8.8 1.8 1.8v9.6c0 1-.81 1.8-1.8 1.8h-.82l-.08.02c-.14-.11-.28-.2-.45-.26l-3.3-1.27a.6.6 0 0 1-.37-.65l.56-3.48a1.8 1.8 0 0 0-.38-1.42l-2.22-2.73a.6.6 0 0 1 0-.76l2.18-2.69zm25.26 2.47a.6.6 0 0 0 0 1.2h1.2a.6.6 0 0 0 0-1.2h-1.2z"/></svg>