<svg xmlns="http://www.w3.org/2000/svg" width="52" height="49" version="1.1"><g fill="none"><path fill="#D3D808" d="M42 20a1 1 0 0 1-1 1H29a1 1 0 0 1-1-1v-4a1 1 0 0 1 1-1h12a1 1 0 0 1 1 1v4z"/><path fill="url(#paint0_linear)" d="M14 5a1 1 0 0 1-1 1H1a1 1 0 0 1-1-1V1a1 1 0 0 1 1-1h12a1 1 0 0 1 1 1v4z" transform="translate(28 15)"/><path fill="#D3D808" d="M49 34h-1V2.8c0-.85-.52-1.59-1.31-1.88-.8-.3-1.68-.06-2.23.6l-1.69 2.02a.99.99 0 0 1-.77.35 1 1 0 0 1-.77-.35l-2.06-2.46a3 3 0 0 0-4.42-.2l-2.9 2.88a1.01 1.01 0 0 1-1.49-.06L28.3 1.24a3 3 0 0 0-4.6 0L21.63 3.7a1 1 0 0 1-1.48.06L17.26.87a3.01 3.01 0 0 0-4.42.2l-2.06 2.46a.99.99 0 0 1-.77.36 1 1 0 0 1-.77-.36l-1.7-2.02A1.98 1.98 0 0 0 5.33.92 1.99 1.99 0 0 0 4 2.79V34H3a3 3 0 0 0-3 3.01v4a3 3 0 0 0 3 3h46a3 3 0 0 0 3-3v-4a3 3 0 0 0-3-3zM7.7 4.82a3 3 0 0 0 4.6 0l2.07-2.46a.99.99 0 0 1 .72-.36c.3 0 .55.1.75.3l2.9 2.88a3.01 3.01 0 0 0 4.42-.2l2.07-2.46a1 1 0 0 1 .77-.36 1 1 0 0 1 .77.36l2.07 2.46a3 3 0 0 0 4.42.2l2.9-2.89c.2-.2.46-.27.76-.29a1 1 0 0 1 .72.36l2.06 2.46a2.98 2.98 0 0 0 4.6 0L46 2.8V42H6V2.8l1.7 2.02zM2 41.02v-4A1 1 0 0 1 3 36h1v6H3a1 1 0 0 1-1-.99zm48 0a1 1 0 0 1-1 .98h-1v-6h1a1 1 0 0 1 1 1.01v4z"/><path fill="url(#paint1_linear)" d="M49 34h-1V2.8c0-.85-.52-1.59-1.31-1.88-.8-.3-1.68-.06-2.23.6l-1.69 2.02a.99.99 0 0 1-.77.35 1 1 0 0 1-.77-.35l-2.06-2.46a3 3 0 0 0-4.42-.2l-2.9 2.88a1.01 1.01 0 0 1-1.49-.06L28.3 1.24a3 3 0 0 0-4.6 0L21.63 3.7a1 1 0 0 1-1.48.06L17.26.87a3.01 3.01 0 0 0-4.42.2l-2.06 2.46a.99.99 0 0 1-.77.36 1 1 0 0 1-.77-.36l-1.7-2.02A1.98 1.98 0 0 0 5.33.92 1.99 1.99 0 0 0 4 2.79V34H3a3 3 0 0 0-3 3.01v4a3 3 0 0 0 3 3h46a3 3 0 0 0 3-3v-4a3 3 0 0 0-3-3zM7.7 4.82a3 3 0 0 0 4.6 0l2.07-2.46a.99.99 0 0 1 .72-.36c.3 0 .55.1.75.3l2.9 2.88a3.01 3.01 0 0 0 4.42-.2l2.07-2.46a1 1 0 0 1 .77-.36 1 1 0 0 1 .77.36l2.07 2.46a3 3 0 0 0 4.42.2l2.9-2.89c.2-.2.46-.27.76-.29a1 1 0 0 1 .72.36l2.06 2.46a2.98 2.98 0 0 0 4.6 0L46 2.8V42H6V2.8l1.7 2.02zM2 41.02v-4A1 1 0 0 1 3 36h1v6H3a1 1 0 0 1-1-.99zm48 0a1 1 0 0 1-1 .98h-1v-6h1a1 1 0 0 1 1 1.01v4z"/><path fill="#D3D808" d="M48 46H4v2h44v-2z"/><path fill="url(#paint2_linear)" d="M44 0H0v2h44V0z" transform="translate(4 46)"/><path fill="#D3D808" d="M20 34h-4v2h4v-2z"/><path fill="url(#paint3_linear)" d="M4 0H0v2h4V0z" transform="translate(16 34)"/><path fill="#D3D808" d="M30 34h-8v2h8v-2z"/><path fill="url(#paint4_linear)" d="M8 0H0v2h8V0z" transform="translate(22 34)"/><path fill="#D3D808" d="M36 34h-4v2h4v-2z"/><path fill="url(#paint5_linear)" d="M4 0H0v2h4V0z" transform="translate(32 34)"/><path fill="#D3D808" d="M24 15H10v2h14v-2z"/><path fill="url(#paint6_linear)" d="M14 0H0v2h14V0z" transform="translate(10 15)"/><path fill="#D3D808" d="M24 19H10v2h14v-2z"/><path fill="url(#paint7_linear)" d="M14 0H0v2h14V0z" transform="translate(10 19)"/><path fill="#D3D808" d="M22 23H10v2h12v-2z"/><path fill="url(#paint8_linear)" d="M12 0H0v2h12V0z" transform="translate(10 23)"/><path fill="#D3D808" d="M20 27H10v2h10v-2z"/><path fill="url(#paint9_linear)" d="M10 0H0v2h10V0z" transform="translate(10 27)"/><path fill="#D3D808" d="M42 23H28v2h14v-2z"/><path fill="url(#paint10_linear)" d="M14 0H0v2h14V0z" transform="translate(28 23)"/><path fill="#D3D808" d="M42 34h-4v2h4v-2z"/><path fill="url(#paint11_linear)" d="M4 0H0v2h4V0z" transform="translate(38 34)"/><path fill="#D3D808" d="M14 34h-4v2h4v-2z"/><path fill="url(#paint12_linear)" d="M4 0H0v2h4V0z" transform="translate(10 34)"/><path fill="#D3D808" d="M39 27H28v2h11v-2z"/><path fill="url(#paint13_linear)" d="M11 0H0v2h11V0z" transform="translate(28 27)"/></g><defs><linearGradient id="paint0_linear" x2="1" gradientTransform="matrix(-13.6744 -2.47895 7.22964 -3.37658 10.39 5.53)" gradientUnits="userSpaceOnUse"><stop stop-color="#58C0BA"/><stop offset="1" stop-color="#5E81DE"/></linearGradient><linearGradient id="paint1_linear" x2="1" gradientTransform="matrix(-50.7907 -18.1805 26.8529 -24.7637 38.57 40.52)" gradientUnits="userSpaceOnUse"><stop stop-color="#58C0BA"/><stop offset="1" stop-color="#5E81DE"/></linearGradient><linearGradient id="paint2_linear" x2="1" gradientTransform="matrix(-42.9767 -.82632 22.7217 -1.12553 32.64 1.84)" gradientUnits="userSpaceOnUse"><stop stop-color="#58C0BA"/><stop offset="1" stop-color="#5E81DE"/></linearGradient><linearGradient id="paint3_linear" x2="1" gradientTransform="matrix(-3.90698 -.82632 2.06561 -1.12553 2.97 1.84)" gradientUnits="userSpaceOnUse"><stop stop-color="#58C0BA"/><stop offset="1" stop-color="#5E81DE"/></linearGradient><linearGradient id="paint4_linear" x2="1" gradientTransform="matrix(-7.81395 -.82632 4.13122 -1.12553 5.93 1.84)" gradientUnits="userSpaceOnUse"><stop stop-color="#58C0BA"/><stop offset="1" stop-color="#5E81DE"/></linearGradient><linearGradient id="paint5_linear" x2="1" gradientTransform="matrix(-3.90698 -.82632 2.06561 -1.12553 2.97 1.84)" gradientUnits="userSpaceOnUse"><stop stop-color="#58C0BA"/><stop offset="1" stop-color="#5E81DE"/></linearGradient><linearGradient id="paint6_linear" x2="1" gradientTransform="matrix(-13.6744 -.82632 7.22964 -1.12553 10.39 1.84)" gradientUnits="userSpaceOnUse"><stop stop-color="#58C0BA"/><stop offset="1" stop-color="#5E81DE"/></linearGradient><linearGradient id="paint7_linear" x2="1" gradientTransform="matrix(-13.6744 -.82632 7.22964 -1.12553 10.39 1.84)" gradientUnits="userSpaceOnUse"><stop stop-color="#58C0BA"/><stop offset="1" stop-color="#5E81DE"/></linearGradient><linearGradient id="paint8_linear" x2="1" gradientTransform="matrix(-11.7209 -.82632 6.19683 -1.12553 8.9 1.84)" gradientUnits="userSpaceOnUse"><stop stop-color="#58C0BA"/><stop offset="1" stop-color="#5E81DE"/></linearGradient><linearGradient id="paint9_linear" x2="1" gradientTransform="matrix(-9.76744 -.82632 5.16403 -1.12553 7.42 1.84)" gradientUnits="userSpaceOnUse"><stop stop-color="#58C0BA"/><stop offset="1" stop-color="#5E81DE"/></linearGradient><linearGradient id="paint10_linear" x2="1" gradientTransform="matrix(-13.6744 -.82632 7.22964 -1.12553 10.39 1.84)" gradientUnits="userSpaceOnUse"><stop stop-color="#58C0BA"/><stop offset="1" stop-color="#5E81DE"/></linearGradient><linearGradient id="paint11_linear" x2="1" gradientTransform="matrix(-3.90698 -.82632 2.06561 -1.12553 2.97 1.84)" gradientUnits="userSpaceOnUse"><stop stop-color="#58C0BA"/><stop offset="1" stop-color="#5E81DE"/></linearGradient><linearGradient id="paint12_linear" x2="1" gradientTransform="matrix(-3.90698 -.82632 2.06561 -1.12553 2.97 1.84)" gradientUnits="userSpaceOnUse"><stop stop-color="#58C0BA"/><stop offset="1" stop-color="#5E81DE"/></linearGradient><linearGradient id="paint13_linear" x2="1" gradientTransform="matrix(-10.7442 -.82632 5.68043 -1.12553 8.16 1.84)" gradientUnits="userSpaceOnUse"><stop stop-color="#58C0BA"/><stop offset="1" stop-color="#5E81DE"/></linearGradient></defs></svg>