<svg xmlns="http://www.w3.org/2000/svg" width="55" height="52" version="1.1"><path fill="url(#paint0_linear)" d="M6.05 0A6.07 6.07 0 0 0 0 6.07v39.86A6.07 6.07 0 0 0 6.05 52h19.03a6.06 6.06 0 0 0 6-5.3l3.35.54a11.2 11.2 0 0 0 9.7-3.16l7.33-7.34a12 12 0 0 0 3.53-9.01c-.12-3.4-1.6-6.5-4.17-8.74l-7-6.08a4.06 4.06 0 0 0-5.48.22 3.99 3.99 0 0 0-1.17 2.74 4.33 4.33 0 0 0-4.71.7l-.17.17a4.36 4.36 0 0 0-1.1 3.02l-.06-.03V6.07A6.07 6.07 0 0 0 25.08 0H6.05zm0 1.73h19.03a4.33 4.33 0 0 1 4.32 4.34v.86H1.73v-.86a4.33 4.33 0 0 1 4.32-4.34zm5.2 1.74a.87.87 0 0 0 0 1.73h1.72a.87.87 0 0 0 0-1.73h-1.73zm5.18 0a.87.87 0 0 0 0 1.73h3.46a.87.87 0 0 0 0-1.73h-3.46zm-14.7 5.2H29.4v5.2a.87.87 0 0 0-.87.86v1.74c0 .47.39.86.87.86v1.98a4.6 4.6 0 0 0-4.77 4.04l-8.6-8.62a4.29 4.29 0 0 0-6.12 0 4.35 4.35 0 0 0 0 6.13L23.25 34.3c0 .01 0 .02.02.03l.71.72-6.03 1.31a4.43 4.43 0 0 0-3.45 5.23H1.73V17.33c.48 0 .86-.39.86-.86v-1.74a.87.87 0 0 0-.86-.86v-5.2zm39.37 5.01a2.3 2.3 0 0 1 1.6.54l7 6.08a10.3 10.3 0 0 1 3.57 7.5 10.3 10.3 0 0 1-3.04 7.72l-7.32 7.33a9.53 9.53 0 0 1-8.2 2.68l-17.74-2.8a2.73 2.73 0 0 1-.7-2.74 2.72 2.72 0 0 1 2.06-1.92l7.11-1.56 1.5 1.5a.86.86 0 0 0 1.23 0 .87.87 0 0 0 0-1.22l-1.87-1.87-15.17-15.28a2.61 2.61 0 0 1 1.84-4.45c.7 0 1.35.27 1.84.77l10.66 10.68c.14.2.3.38.47.55l1.02 1.02A.86.86 0 1 0 28.18 27l-1.02-1.03a3.27 3.27 0 0 1-.18-.19.93.93 0 0 0-.16-.23l-.02-.02a2.9 2.9 0 0 1 .35-3.63l.01-.01c1-1 2.56-1.13 3.71-.3l1.7 1.21a.87.87 0 0 0 1.12-1.32 2.6 2.6 0 0 1-.09-3.59c.88-.8 2.2-.9 3.19-.24l1.24.83.3.3.01.01c.34.34.88.34 1.22 0a.87.87 0 0 0 0-1.22 2.27 2.27 0 0 1 1.54-3.88zm-35.05.19a.87.87 0 0 0-.86.86v1.74a.87.87 0 1 0 1.73 0v-1.74a.87.87 0 0 0-.87-.86zm14.7 0a.87.87 0 0 0-.86.86v1.74a.87.87 0 1 0 1.73 0v-1.74a.87.87 0 0 0-.87-.86zm4.33 0a.87.87 0 0 0-.87.86v1.74a.87.87 0 1 0 1.73 0v-1.74a.87.87 0 0 0-.86-.86zM1.73 43.33h13.5a6 6 0 0 0 .51.62c.26.26.6.43.96.48l12.65 2a4.32 4.32 0 0 1-4.27 3.84H6.05a4.33 4.33 0 0 1-4.32-4.34v-2.6zm13.83 1.74a1.73 1.73 0 1 0 0 3.46 1.73 1.73 0 0 0 0-3.46z"/><defs><linearGradient id="paint0_linear" x2="1" gradientTransform="matrix(-53.7209 -21.4842 28.4022 -29.2637 40.8 47.88)" gradientUnits="userSpaceOnUse"><stop stop-color="#58C0BA"/><stop offset="1" stop-color="#5E81DE"/></linearGradient></defs></svg>