<svg xmlns="http://www.w3.org/2000/svg" width="156" height="31" version="1.1"><g fill="none"><path fill="#59B4C1" fill-rule="evenodd" d="M12 .1h12v5.99h6v6h-.03v6h-6v-6H18v-6h-6v-6zm5.87 18h6v6h-6v-6zm12.13 6h-6v6h6v-6zm-12-12h-6v-6H0v6h6v6H0v6h6-6v6h6v-6h6v6h6v-6h-6v-6h6v-6zm-18-6v-6h6v6H0z" clip-rule="evenodd"/><path fill="#243036" d="M48.73 25h-2.3c-.24 0-.36-.13-.36-.38V7.29c0-.26.12-.38.36-.38h2.76c.2 0 .33.09.4.28l3.09 5.74c.64 1.2 1.36 2.68 2.15 4.45h.1c.8-1.77 1.51-3.25 2.15-4.45l3.06-5.74c.1-.19.25-.28.43-.28h2.74c.25 0 .38.12.38.38v17.33c0 .25-.13.38-.38.38H61c-.24 0-.36-.13-.36-.38v-5.09c0-1.99.07-4.63.2-7.94l-.07-.03c-.5 1.1-1.27 2.66-2.28 4.68l-2.23 4.33a.44.44 0 0 1-.43.28h-1.92c-.2 0-.35-.1-.43-.28l-2.23-4.33a179.4 179.4 0 0 1-2.28-4.68l-.07.03c.13 3.3.2 5.95.2 7.94v5.09c0 .25-.13.38-.38.38zm29.74-4.8c0 1.56-.52 2.8-1.57 3.74a6.17 6.17 0 0 1-4.2 1.36 6.17 6.17 0 0 1-4.2-1.36 4.76 4.76 0 0 1-1.57-3.75V16.8A4.9 4.9 0 0 1 68.5 13a6.03 6.03 0 0 1 4.2-1.41c1.76 0 3.16.47 4.2 1.42a4.86 4.86 0 0 1 1.57 3.8v3.38zm-8.57 0c0 1.65.93 2.47 2.8 2.47.91 0 1.6-.2 2.08-.63.49-.42.73-1.04.73-1.85V16.8c0-.83-.24-1.46-.73-1.9a2.93 2.93 0 0 0-2.08-.68c-.9 0-1.6.22-2.1.66-.47.44-.7 1.08-.7 1.92v3.4zm19.12-8.05V7.29c0-.26.13-.38.38-.38h2.18c.25 0 .38.12.38.38v16.67c0 .22-.1.37-.28.43-1.65.61-3.36.91-5.11.91a6.2 6.2 0 0 1-4.23-1.39c-1.04-.93-1.57-2.32-1.57-4.17v-2.79c0-1.62.52-2.92 1.55-3.9a5.53 5.53 0 0 1 3.97-1.46c.96 0 1.87.18 2.73.56zm-5.29 7.61c0 1.05.25 1.8.74 2.28.5.45 1.23.68 2.17.68a6.8 6.8 0 0 0 2.38-.35v-7.52a4.28 4.28 0 0 0-2.43-.65c-1.9 0-2.86.91-2.86 2.75v2.81zm19.71-7.87h2.2c.26 0 .38.12.38.36v11.59c0 .22-.1.37-.28.45a12.19 12.19 0 0 1-4.96 1.01c-1.8 0-3.22-.46-4.25-1.39-1.03-.93-1.54-2.36-1.54-4.3v-7.36c0-.24.13-.36.38-.36h2.2c.24 0 .35.12.35.36v7.31c0 1.13.24 1.93.71 2.4.5.48 1.2.71 2.15.71.97 0 1.73-.1 2.3-.3V12.25c0-.24.12-.36.36-.36zm11.33 13.34c-.44.05-.92.07-1.44.07-1.35 0-2.4-.43-3.14-1.29a5.45 5.45 0 0 1-1.09-3.62V7.3c0-.26.13-.38.38-.38h2.18c.25 0 .38.12.38.38v13c0 .83.13 1.43.4 1.8.27.35.7.53 1.27.53.2 0 .52-.02.96-.05.25 0 .38.13.38.38v1.87c0 .26-.1.4-.28.4zm3.08-18.32h5.82c1.97 0 3.5.5 4.58 1.52a5.4 5.4 0 0 1 1.62 4.17c0 1.8-.54 3.2-1.62 4.2s-2.6 1.5-4.58 1.5H119v6.5c0 .13-.06.2-.2.2h-.96c-.15 0-.23-.07-.23-.2V7.1c0-.14.08-.2.23-.2zM119 17h4.5c3.31 0 4.97-1.47 4.97-4.4 0-1.44-.43-2.53-1.27-3.27-.83-.76-2.06-1.14-3.7-1.14H119V17zm13.5-4a7.85 7.85 0 0 1 4.63-1.32c1.55 0 2.74.41 3.56 1.24.85.83 1.27 2 1.27 3.54v7.7c0 .11-.06.2-.18.25-1.48.57-3.05.86-4.7.86a6.5 6.5 0 0 1-3.83-1.06 3.5 3.5 0 0 1-1.49-3.04c0-1.28.47-2.27 1.42-2.96a6.48 6.48 0 0 1 3.9-1.04c.89 0 2.07.14 3.54.4V16.5c0-2.38-1.18-3.57-3.55-3.57-1.46 0-2.75.35-3.87 1.04-.1.08-.2.06-.28-.05l-.43-.66c-.08-.12-.08-.2 0-.25zm.63 8.17c0 .9.36 1.6 1.09 2.12.72.51 1.67.76 2.85.76 1.19 0 2.37-.2 3.55-.6v-4.71a16.63 16.63 0 0 0-3.55-.38c-2.63 0-3.94.94-3.94 2.8zm21.1 1.29V12.2c0-.16.07-.23.22-.23h.92c.13 0 .2.07.2.23v12.88c0 1.55-.42 2.76-1.27 3.64-.84.9-2.1 1.34-3.8 1.34a7.05 7.05 0 0 1-4.77-1.87c-.1-.1-.11-.2-.03-.3l.48-.66c.09-.12.18-.13.28-.03a6.47 6.47 0 0 0 4.05 1.65c2.53-.02 3.78-1.3 3.74-3.85v-1.24a8.4 8.4 0 0 1-3.56.78 5.7 5.7 0 0 1-3.83-1.26c-.97-.84-1.46-2.07-1.46-3.67V12.2c0-.16.06-.23.2-.23h.91c.15 0 .23.07.23.23v7.36c0 1.25.36 2.18 1.09 2.8.74.63 1.74.94 3 .94s2.39-.27 3.4-.83z"/></g></svg>